<svg xmlns="http://www.w3.org/2000/svg" aria-hidden="true" style="position:absolute;width:0;height:0;overflow:hidden">
  <defs>
  <!--logo-->
    <symbol id="logo" viewBox="0 0 108 32">
      <path  d="M13.533 2.347h5.16l12.32 28.32h-7.04l-2.44-6h-11l-2.36 6h-6.88l12.24-28.32zm2.4 8.24-3.44 8.8h6.92l-3.48-8.8zM33.182.427h6v30.24h-6V.427zM43.572 11.227h6v19.44h-6v-19.44zm-.48-6.12c0-.96.333-1.773 1-2.44.693-.693 1.52-1.04 2.48-1.04s1.773.347 2.44 1.04c.693.667 1.04 1.48 1.04 2.44s-.347 1.787-1.04 2.48c-.667.667-1.48 1-2.44 1s-1.787-.333-2.48-1c-.667-.693-1-1.52-1-2.48zM51.843 11.227h6.48l4.92 13.2h.08l4.56-13.2h6.04l-7.68 19.44h-6.36l-8.04-19.44zM76.19 11.227h6v19.44h-6v-19.44zm-.48-6.12c0-.96.333-1.773 1-2.44.693-.693 1.52-1.04 2.48-1.04s1.773.347 2.44 1.04c.693.667 1.04 1.48 1.04 2.44s-.347 1.787-1.04 2.48c-.667.667-1.48 1-2.44 1s-1.787-.333-2.48-1c-.667-.693-1-1.52-1-2.48zM85.78 20.947c0-1.547.28-2.947.84-4.2s1.32-2.32 2.28-3.2c.987-.907 2.133-1.6 3.44-2.08 1.333-.48 2.747-.72 4.24-.72s2.893.24 4.2.72c1.333.48 2.48 1.173 3.44 2.08.987.88 1.76 1.947 2.32 3.2s.84 2.653.84 4.2c0 1.547-.28 2.947-.84 4.2s-1.333 2.333-2.32 3.24c-.96.88-2.107 1.56-3.44 2.04-1.307.48-2.707.72-4.2.72s-2.907-.24-4.24-.72a10.604 10.604 0 0 1-3.44-2.04c-.96-.907-1.72-1.987-2.28-3.24s-.84-2.653-.84-4.2zm6 0c0 1.467.413 2.653 1.24 3.56.853.907 2.04 1.36 3.56 1.36s2.693-.453 3.52-1.36c.853-.907 1.28-2.093 1.28-3.56s-.427-2.653-1.28-3.56c-.827-.907-2-1.36-3.52-1.36s-2.707.453-3.56 1.36c-.827.907-1.24 2.093-1.24 3.56z" />
    </symbol>

   
  </defs>
</svg>
